<svg xmlns="http://www.w3.org/2000/svg" width="512" height="512" viewBox="0 0 512 512" role="img" aria-label="Dummy portrait">
  <defs>
    <linearGradient id="bg" x1="0" y1="0" x2="1" y2="1">
      <stop offset="0" stop-color="#ffe6df"/>
      <stop offset="1" stop-color="#ffd0c4"/>
    </linearGradient>
    <linearGradient id="hair" x1="0" y1="0" x2="0" y2="1">
      <stop offset="0" stop-color="#5f3028"/>
      <stop offset="1" stop-color="#3f1f1a"/>
    </linearGradient>
  </defs>
  <rect width="512" height="512" rx="120" fill="url(#bg)"/>
  <circle cx="256" cy="206" r="122" fill="url(#hair)"/>
  <circle cx="256" cy="226" r="100" fill="#f7c9b9"/>
  <path d="M184 214c14-18 40-18 54 0" stroke="#6b3a33" stroke-width="8" fill="none" stroke-linecap="round"/>
  <path d="M274 214c14-18 40-18 54 0" stroke="#6b3a33" stroke-width="8" fill="none" stroke-linecap="round"/>
  <circle cx="224" cy="238" r="8" fill="#5a2a24"/>
  <circle cx="314" cy="238" r="8" fill="#5a2a24"/>
  <path d="M228 292c22 24 62 24 84 0" stroke="#c2415b" stroke-width="10" fill="none" stroke-linecap="round"/>
  <path d="M146 420c10-78 72-126 110-126s99 48 110 126" fill="#ec6c8f"/>
  <text x="256" y="474" font-family="Verdana, sans-serif" font-size="24" fill="#7f261f" text-anchor="middle">DUMMY PHOTO</text>
</svg>
