<svg xmlns="http://www.w3.org/2000/svg" width="512" height="512" viewBox="0 0 512 512" role="img" aria-label="Dummy portrait 5">
  <defs>
    <linearGradient id="bg5" x1="0" y1="0" x2="1" y2="1">
      <stop offset="0" stop-color="#ffdce8"/>
      <stop offset="1" stop-color="#f8d6ff"/>
    </linearGradient>
    <linearGradient id="hair5" x1="0" y1="0" x2="0" y2="1">
      <stop offset="0" stop-color="#5b3440"/>
      <stop offset="1" stop-color="#3a2028"/>
    </linearGradient>
  </defs>
  <rect width="512" height="512" rx="120" fill="url(#bg5)"/>
  <circle cx="256" cy="205" r="126" fill="url(#hair5)"/>
  <circle cx="256" cy="226" r="100" fill="#f6c6c8"/>
  <path d="M186 219c12-14 36-14 48 0" stroke="#4a2832" stroke-width="8" fill="none" stroke-linecap="round"/>
  <path d="M278 219c12-14 36-14 48 0" stroke="#4a2832" stroke-width="8" fill="none" stroke-linecap="round"/>
  <circle cx="220" cy="241" r="8" fill="#3e1f2a"/>
  <circle cx="304" cy="241" r="8" fill="#3e1f2a"/>
  <path d="M225 296c22 22 60 22 82 0" stroke="#e11d48" stroke-width="10" fill="none" stroke-linecap="round"/>
  <path d="M144 424c18-76 74-126 112-126s94 50 112 126" fill="#e879a8"/>
  <text x="256" y="474" font-family="Verdana, sans-serif" font-size="24" fill="#8f1d47" text-anchor="middle">DUMMY PHOTO 5</text>
</svg>
